G75*
%MOIN*%
%OFA0B0*%
%FSLAX25Y25*%
%IPPOS*%
%LPD*%
%AMOC8*
5,1,8,0,0,1.08239X$1,22.5*
%
%ADD10C,0.00800*%
D10*
X0059039Y0044531D02*
X0063961Y0044531D01*
X0063961Y0047957D02*
X0063961Y0055043D01*
X0059039Y0055043D02*
X0059039Y0047957D01*
X0124039Y0047957D02*
X0124039Y0055043D01*
X0128961Y0055043D02*
X0128961Y0047957D01*
X0128961Y0044531D02*
X0124039Y0044531D01*
X0189039Y0044531D02*
X0193961Y0044531D01*
X0193961Y0047957D02*
X0193961Y0055043D01*
X0189039Y0055043D02*
X0189039Y0047957D01*
X0254039Y0047957D02*
X0254039Y0055043D01*
X0258961Y0055043D02*
X0258961Y0047957D01*
X0258961Y0044531D02*
X0254039Y0044531D01*
X0319039Y0044531D02*
X0323961Y0044531D01*
X0323961Y0047957D02*
X0323961Y0055043D01*
X0319039Y0055043D02*
X0319039Y0047957D01*
X0421307Y0041862D02*
X0421307Y0037138D01*
X0434693Y0037138D02*
X0434693Y0041862D01*
X0429181Y0049736D02*
X0426819Y0049736D01*
X0447720Y0058705D02*
X0447720Y0060280D01*
X0449295Y0060280D01*
X0473705Y0060280D02*
X0475280Y0060280D01*
X0475280Y0058705D01*
X0406461Y0077957D02*
X0406461Y0085043D01*
X0401539Y0085043D02*
X0401539Y0077957D01*
X0401539Y0088469D02*
X0406461Y0088469D01*
X0388961Y0109531D02*
X0384039Y0109531D01*
X0384039Y0112957D02*
X0384039Y0120043D01*
X0388961Y0120043D02*
X0388961Y0112957D01*
X0449039Y0112957D02*
X0449039Y0120043D01*
X0453961Y0120043D02*
X0453961Y0112957D01*
X0453961Y0109531D02*
X0449039Y0109531D01*
X0514039Y0109531D02*
X0518961Y0109531D01*
X0518961Y0112957D02*
X0518961Y0120043D01*
X0514039Y0120043D02*
X0514039Y0112957D01*
X0579039Y0112957D02*
X0579039Y0120043D01*
X0583961Y0120043D02*
X0583961Y0112957D01*
X0583961Y0109531D02*
X0579039Y0109531D01*
X0644039Y0109531D02*
X0648961Y0109531D01*
X0648961Y0112957D02*
X0648961Y0120043D01*
X0644039Y0120043D02*
X0644039Y0112957D01*
X0709039Y0112957D02*
X0709039Y0120043D01*
X0713961Y0120043D02*
X0713961Y0112957D01*
X0713961Y0109531D02*
X0709039Y0109531D01*
X0774039Y0109531D02*
X0778961Y0109531D01*
X0778961Y0112957D02*
X0778961Y0120043D01*
X0774039Y0120043D02*
X0774039Y0112957D01*
X0800319Y0071736D02*
X0802681Y0071736D01*
X0821500Y0071500D02*
X0821500Y0068500D01*
X0821500Y0071500D02*
X0824500Y0071500D01*
X0838500Y0071500D02*
X0841343Y0071500D01*
X0841500Y0071500D02*
X0841500Y0068500D01*
X0808193Y0063862D02*
X0808193Y0059138D01*
X0794807Y0059138D02*
X0794807Y0063862D01*
X0778961Y0055043D02*
X0778961Y0047957D01*
X0778961Y0044531D02*
X0774039Y0044531D01*
X0774039Y0047957D02*
X0774039Y0055043D01*
X0800319Y0051264D02*
X0802681Y0051264D01*
X0821500Y0051500D02*
X0821500Y0054500D01*
X0821500Y0051500D02*
X0824500Y0051500D01*
X0838500Y0051500D02*
X0841500Y0051500D01*
X0841500Y0054500D01*
X0841343Y0053626D02*
X0839374Y0053626D01*
X0839374Y0051657D01*
X0839374Y0049689D02*
X0839376Y0049745D01*
X0839382Y0049800D01*
X0839392Y0049854D01*
X0839405Y0049908D01*
X0839423Y0049961D01*
X0839444Y0050012D01*
X0839468Y0050062D01*
X0839496Y0050110D01*
X0839528Y0050156D01*
X0839562Y0050200D01*
X0839600Y0050241D01*
X0839640Y0050279D01*
X0839683Y0050314D01*
X0839728Y0050346D01*
X0839776Y0050375D01*
X0839825Y0050401D01*
X0839876Y0050423D01*
X0839928Y0050441D01*
X0839982Y0050455D01*
X0840037Y0050466D01*
X0840092Y0050473D01*
X0840147Y0050476D01*
X0840203Y0050475D01*
X0840258Y0050470D01*
X0840313Y0050461D01*
X0840367Y0050449D01*
X0840420Y0050432D01*
X0840472Y0050412D01*
X0840522Y0050388D01*
X0840570Y0050361D01*
X0840617Y0050331D01*
X0840661Y0050297D01*
X0840703Y0050260D01*
X0840741Y0050220D01*
X0840778Y0050178D01*
X0840811Y0050133D01*
X0840840Y0050087D01*
X0840867Y0050038D01*
X0840889Y0049987D01*
X0840909Y0049935D01*
X0840924Y0049881D01*
X0840936Y0049827D01*
X0840944Y0049772D01*
X0840948Y0049717D01*
X0840948Y0049661D01*
X0840944Y0049606D01*
X0840936Y0049551D01*
X0840924Y0049497D01*
X0840909Y0049443D01*
X0840889Y0049391D01*
X0840867Y0049340D01*
X0840840Y0049291D01*
X0840811Y0049245D01*
X0840778Y0049200D01*
X0840741Y0049158D01*
X0840703Y0049118D01*
X0840661Y0049081D01*
X0840617Y0049047D01*
X0840570Y0049017D01*
X0840522Y0048990D01*
X0840472Y0048966D01*
X0840420Y0048946D01*
X0840367Y0048929D01*
X0840313Y0048917D01*
X0840258Y0048908D01*
X0840203Y0048903D01*
X0840147Y0048902D01*
X0840092Y0048905D01*
X0840037Y0048912D01*
X0839982Y0048923D01*
X0839928Y0048937D01*
X0839876Y0048955D01*
X0839825Y0048977D01*
X0839776Y0049003D01*
X0839728Y0049032D01*
X0839683Y0049064D01*
X0839640Y0049099D01*
X0839600Y0049137D01*
X0839562Y0049178D01*
X0839528Y0049222D01*
X0839496Y0049268D01*
X0839468Y0049316D01*
X0839444Y0049366D01*
X0839423Y0049417D01*
X0839405Y0049470D01*
X0839392Y0049524D01*
X0839382Y0049578D01*
X0839376Y0049633D01*
X0839374Y0049689D01*
X0713961Y0047957D02*
X0713961Y0055043D01*
X0709039Y0055043D02*
X0709039Y0047957D01*
X0709039Y0044531D02*
X0713961Y0044531D01*
X0648961Y0044531D02*
X0644039Y0044531D01*
X0644039Y0047957D02*
X0644039Y0055043D01*
X0648961Y0055043D02*
X0648961Y0047957D01*
X0553961Y0047957D02*
X0553961Y0055043D01*
X0549039Y0055043D02*
X0549039Y0047957D01*
X0549039Y0044531D02*
X0553961Y0044531D01*
X0475280Y0034689D02*
X0473311Y0032720D01*
X0449295Y0032720D02*
X0447720Y0032720D01*
X0447720Y0034295D01*
X0429181Y0029264D02*
X0426819Y0029264D01*
X0323961Y0109531D02*
X0319039Y0109531D01*
X0319039Y0112957D02*
X0319039Y0120043D01*
X0323961Y0120043D02*
X0323961Y0112957D01*
X0258961Y0112957D02*
X0258961Y0120043D01*
X0254039Y0120043D02*
X0254039Y0112957D01*
X0254039Y0109531D02*
X0258961Y0109531D01*
X0193961Y0109531D02*
X0189039Y0109531D01*
X0189039Y0112957D02*
X0189039Y0120043D01*
X0193961Y0120043D02*
X0193961Y0112957D01*
X0128961Y0112957D02*
X0128961Y0120043D01*
X0124039Y0120043D02*
X0124039Y0112957D01*
X0124039Y0109531D02*
X0128961Y0109531D01*
X0063961Y0109531D02*
X0059039Y0109531D01*
X0059039Y0112957D02*
X0059039Y0120043D01*
X0063961Y0120043D02*
X0063961Y0112957D01*
X0063961Y0174531D02*
X0059039Y0174531D01*
X0059039Y0177957D02*
X0059039Y0185043D01*
X0063961Y0185043D02*
X0063961Y0177957D01*
X0124039Y0177957D02*
X0124039Y0185043D01*
X0128961Y0185043D02*
X0128961Y0177957D01*
X0128961Y0174531D02*
X0124039Y0174531D01*
X0189039Y0174531D02*
X0193961Y0174531D01*
X0193961Y0177957D02*
X0193961Y0185043D01*
X0189039Y0185043D02*
X0189039Y0177957D01*
X0254039Y0177957D02*
X0254039Y0185043D01*
X0258961Y0185043D02*
X0258961Y0177957D01*
X0258961Y0174531D02*
X0254039Y0174531D01*
X0319039Y0174531D02*
X0323961Y0174531D01*
X0323961Y0177957D02*
X0323961Y0185043D01*
X0319039Y0185043D02*
X0319039Y0177957D01*
X0384039Y0177957D02*
X0384039Y0185043D01*
X0388961Y0185043D02*
X0388961Y0177957D01*
X0388961Y0174531D02*
X0384039Y0174531D01*
X0449039Y0174531D02*
X0453961Y0174531D01*
X0453961Y0177957D02*
X0453961Y0185043D01*
X0449039Y0185043D02*
X0449039Y0177957D01*
X0514039Y0177957D02*
X0514039Y0185043D01*
X0518961Y0185043D02*
X0518961Y0177957D01*
X0518961Y0174531D02*
X0514039Y0174531D01*
X0579039Y0174531D02*
X0583961Y0174531D01*
X0583961Y0177957D02*
X0583961Y0185043D01*
X0579039Y0185043D02*
X0579039Y0177957D01*
X0644039Y0177957D02*
X0644039Y0185043D01*
X0648961Y0185043D02*
X0648961Y0177957D01*
X0648961Y0174531D02*
X0644039Y0174531D01*
X0709039Y0174531D02*
X0713961Y0174531D01*
X0713961Y0177957D02*
X0713961Y0185043D01*
X0709039Y0185043D02*
X0709039Y0177957D01*
X0774039Y0177957D02*
X0774039Y0185043D01*
X0778961Y0185043D02*
X0778961Y0177957D01*
X0778961Y0174531D02*
X0774039Y0174531D01*
X0774039Y0239531D02*
X0778961Y0239531D01*
X0778961Y0242957D02*
X0778961Y0250043D01*
X0774039Y0250043D02*
X0774039Y0242957D01*
X0713961Y0242957D02*
X0713961Y0250043D01*
X0709039Y0250043D02*
X0709039Y0242957D01*
X0709039Y0239531D02*
X0713961Y0239531D01*
X0648961Y0239531D02*
X0644039Y0239531D01*
X0644039Y0242957D02*
X0644039Y0250043D01*
X0648961Y0250043D02*
X0648961Y0242957D01*
X0583961Y0242957D02*
X0583961Y0250043D01*
X0579039Y0250043D02*
X0579039Y0242957D01*
X0579039Y0239531D02*
X0583961Y0239531D01*
X0518961Y0239531D02*
X0514039Y0239531D01*
X0514039Y0242957D02*
X0514039Y0250043D01*
X0518961Y0250043D02*
X0518961Y0242957D01*
X0453961Y0242957D02*
X0453961Y0250043D01*
X0449039Y0250043D02*
X0449039Y0242957D01*
X0449039Y0239531D02*
X0453961Y0239531D01*
X0388961Y0239531D02*
X0384039Y0239531D01*
X0384039Y0242957D02*
X0384039Y0250043D01*
X0388961Y0250043D02*
X0388961Y0242957D01*
X0323961Y0242957D02*
X0323961Y0250043D01*
X0319039Y0250043D02*
X0319039Y0242957D01*
X0319039Y0239531D02*
X0323961Y0239531D01*
X0258961Y0239531D02*
X0254039Y0239531D01*
X0254039Y0242957D02*
X0254039Y0250043D01*
X0258961Y0250043D02*
X0258961Y0242957D01*
X0193961Y0242957D02*
X0193961Y0250043D01*
X0189039Y0250043D02*
X0189039Y0242957D01*
X0189039Y0239531D02*
X0193961Y0239531D01*
X0128961Y0239531D02*
X0124039Y0239531D01*
X0124039Y0242957D02*
X0124039Y0250043D01*
X0128961Y0250043D02*
X0128961Y0242957D01*
X0064961Y0242957D02*
X0064961Y0250043D01*
X0060039Y0250043D02*
X0060039Y0242957D01*
X0060039Y0239531D02*
X0064961Y0239531D01*
M02*
