G75*
%MOIN*%
%OFA0B0*%
%FSLAX25Y25*%
%IPPOS*%
%LPD*%
%AMOC8*
5,1,8,0,0,1.08239X$1,22.5*
%
%ADD10C,0.16548*%
%ADD11C,0.07493*%
%ADD12C,0.09658*%
%ADD13C,0.13973*%
%ADD14C,0.06233*%
%ADD15R,0.04800X0.01981*%
%ADD16R,0.04800X0.03162*%
%ADD17R,0.04800X0.02965*%
%ADD18C,0.03359*%
%ADD19C,0.00039*%
%ADD20C,0.13800*%
D10*
X0036500Y0036500D03*
X0101500Y0036500D03*
X0166500Y0036500D03*
X0231500Y0036500D03*
X0296500Y0036500D03*
X0394000Y0036500D03*
X0524000Y0036500D03*
X0621500Y0036500D03*
X0686500Y0036500D03*
X0751500Y0036500D03*
X0751500Y0101500D03*
X0686500Y0101500D03*
X0621500Y0101500D03*
X0556500Y0101500D03*
X0491500Y0101500D03*
X0426500Y0101500D03*
X0361500Y0101500D03*
X0296500Y0101500D03*
X0231500Y0101500D03*
X0166500Y0101500D03*
X0101500Y0101500D03*
X0036500Y0101500D03*
X0036500Y0166500D03*
X0101500Y0166500D03*
X0166500Y0166500D03*
X0231500Y0166500D03*
X0296500Y0166500D03*
X0361500Y0166500D03*
X0426500Y0166500D03*
X0491500Y0166500D03*
X0556500Y0166500D03*
X0621500Y0166500D03*
X0686500Y0166500D03*
X0751500Y0166500D03*
X0751500Y0231500D03*
X0686500Y0231500D03*
X0621500Y0231500D03*
X0556500Y0231500D03*
X0491500Y0231500D03*
X0426500Y0231500D03*
X0361500Y0231500D03*
X0296500Y0231500D03*
X0231500Y0231500D03*
X0166500Y0231500D03*
X0101500Y0231500D03*
X0036500Y0231500D03*
D11*
X0016500Y0036500D03*
X0056500Y0036500D03*
X0081500Y0036500D03*
X0121500Y0036500D03*
X0146500Y0036500D03*
X0186500Y0036500D03*
X0211500Y0036500D03*
X0251500Y0036500D03*
X0276500Y0036500D03*
X0316500Y0036500D03*
X0374000Y0036500D03*
X0414000Y0036500D03*
X0504000Y0036500D03*
X0544000Y0036500D03*
X0601500Y0036500D03*
X0641500Y0036500D03*
X0666500Y0036500D03*
X0706500Y0036500D03*
X0731500Y0036500D03*
X0771500Y0036500D03*
X0771500Y0101500D03*
X0731500Y0101500D03*
X0706500Y0101500D03*
X0666500Y0101500D03*
X0641500Y0101500D03*
X0601500Y0101500D03*
X0576500Y0101500D03*
X0536500Y0101500D03*
X0511500Y0101500D03*
X0471500Y0101500D03*
X0446500Y0101500D03*
X0406500Y0101500D03*
X0381500Y0101500D03*
X0341500Y0101500D03*
X0316500Y0101500D03*
X0276500Y0101500D03*
X0251500Y0101500D03*
X0211500Y0101500D03*
X0186500Y0101500D03*
X0146500Y0101500D03*
X0121500Y0101500D03*
X0081500Y0101500D03*
X0056500Y0101500D03*
X0016500Y0101500D03*
X0016500Y0166500D03*
X0056500Y0166500D03*
X0081500Y0166500D03*
X0121500Y0166500D03*
X0146500Y0166500D03*
X0186500Y0166500D03*
X0211500Y0166500D03*
X0251500Y0166500D03*
X0276500Y0166500D03*
X0316500Y0166500D03*
X0341500Y0166500D03*
X0381500Y0166500D03*
X0406500Y0166500D03*
X0446500Y0166500D03*
X0471500Y0166500D03*
X0511500Y0166500D03*
X0536500Y0166500D03*
X0576500Y0166500D03*
X0601500Y0166500D03*
X0641500Y0166500D03*
X0666500Y0166500D03*
X0706500Y0166500D03*
X0731500Y0166500D03*
X0771500Y0166500D03*
X0771500Y0231500D03*
X0731500Y0231500D03*
X0706500Y0231500D03*
X0666500Y0231500D03*
X0641500Y0231500D03*
X0601500Y0231500D03*
X0576500Y0231500D03*
X0536500Y0231500D03*
X0511500Y0231500D03*
X0471500Y0231500D03*
X0446500Y0231500D03*
X0406500Y0231500D03*
X0381500Y0231500D03*
X0341500Y0231500D03*
X0316500Y0231500D03*
X0276500Y0231500D03*
X0251500Y0231500D03*
X0211500Y0231500D03*
X0186500Y0231500D03*
X0146500Y0231500D03*
X0121500Y0231500D03*
X0081500Y0231500D03*
X0056500Y0231500D03*
X0016500Y0231500D03*
D12*
X0021500Y0241500D03*
X0046500Y0251500D03*
X0086500Y0241500D03*
X0111500Y0251500D03*
X0151500Y0241500D03*
X0176500Y0251500D03*
X0216500Y0241500D03*
X0241500Y0251500D03*
X0281500Y0241500D03*
X0306500Y0251500D03*
X0346500Y0241500D03*
X0371500Y0251500D03*
X0411500Y0241500D03*
X0436500Y0251500D03*
X0476500Y0241500D03*
X0501500Y0251500D03*
X0541500Y0241500D03*
X0566500Y0251500D03*
X0606500Y0241500D03*
X0631500Y0251500D03*
X0671500Y0241500D03*
X0696500Y0251500D03*
X0736500Y0241500D03*
X0761500Y0251500D03*
X0761500Y0186500D03*
X0736500Y0176500D03*
X0696500Y0186500D03*
X0671500Y0176500D03*
X0631500Y0186500D03*
X0606500Y0176500D03*
X0566500Y0186500D03*
X0541500Y0176500D03*
X0501500Y0186500D03*
X0476500Y0176500D03*
X0436500Y0186500D03*
X0411500Y0176500D03*
X0371500Y0186500D03*
X0346500Y0176500D03*
X0306500Y0186500D03*
X0281500Y0176500D03*
X0241500Y0186500D03*
X0216500Y0176500D03*
X0176500Y0186500D03*
X0151500Y0176500D03*
X0111500Y0186500D03*
X0086500Y0176500D03*
X0046500Y0186500D03*
X0021500Y0176500D03*
X0046500Y0121500D03*
X0021500Y0111500D03*
X0086500Y0111500D03*
X0111500Y0121500D03*
X0151500Y0111500D03*
X0176500Y0121500D03*
X0216500Y0111500D03*
X0241500Y0121500D03*
X0281500Y0111500D03*
X0306500Y0121500D03*
X0346500Y0111500D03*
X0371500Y0121500D03*
X0411500Y0111500D03*
X0436500Y0121500D03*
X0476500Y0111500D03*
X0501500Y0121500D03*
X0541500Y0111500D03*
X0566500Y0121500D03*
X0606500Y0111500D03*
X0631500Y0121500D03*
X0671500Y0111500D03*
X0696500Y0121500D03*
X0736500Y0111500D03*
X0761500Y0121500D03*
X0761500Y0056500D03*
X0736500Y0046500D03*
X0696500Y0056500D03*
X0671500Y0046500D03*
X0631500Y0056500D03*
X0606500Y0046500D03*
X0534000Y0056500D03*
X0509000Y0046500D03*
X0404000Y0056500D03*
X0379000Y0046500D03*
X0306500Y0056500D03*
X0281500Y0046500D03*
X0241500Y0056500D03*
X0216500Y0046500D03*
X0176500Y0056500D03*
X0151500Y0046500D03*
X0111500Y0056500D03*
X0086500Y0046500D03*
X0046500Y0056500D03*
X0021500Y0046500D03*
D13*
X0815516Y0131500D03*
X0867484Y0131500D03*
X0867484Y0181500D03*
X0815516Y0181500D03*
X0815516Y0231500D03*
X0867484Y0231500D03*
D14*
X0855280Y0220476D03*
X0845437Y0220476D03*
X0837563Y0220476D03*
X0827720Y0220476D03*
X0827720Y0170476D03*
X0837563Y0170476D03*
X0845437Y0170476D03*
X0855280Y0170476D03*
X0855280Y0120476D03*
X0845437Y0120476D03*
X0837563Y0120476D03*
X0827720Y0120476D03*
D15*
X0870894Y0028390D03*
X0870894Y0026421D03*
X0870894Y0024453D03*
X0870894Y0022484D03*
X0870894Y0020516D03*
X0870894Y0018547D03*
X0870894Y0016579D03*
X0870894Y0014610D03*
D16*
X0870894Y0008803D03*
X0870894Y0034197D03*
D17*
X0870894Y0031146D03*
X0870894Y0011854D03*
D18*
X0877189Y0010122D03*
X0877189Y0032878D03*
D19*
X0877484Y0036146D02*
X0872760Y0036146D01*
X0872318Y0036207D01*
X0871897Y0036353D01*
X0871512Y0036578D01*
X0871178Y0036874D01*
X0870909Y0037230D01*
X0870714Y0037631D01*
X0870601Y0038063D01*
X0870575Y0038508D01*
X0870601Y0038953D01*
X0870714Y0039385D01*
X0870909Y0039786D01*
X0871178Y0040142D01*
X0871512Y0040438D01*
X0871897Y0040663D01*
X0872318Y0040809D01*
X0872760Y0040870D01*
X0877484Y0040870D01*
X0877983Y0040789D01*
X0878451Y0040600D01*
X0878866Y0040311D01*
X0879206Y0039937D01*
X0879454Y0039497D01*
X0879598Y0039012D01*
X0879630Y0038508D01*
X0879598Y0038004D01*
X0879454Y0037519D01*
X0879206Y0037079D01*
X0878866Y0036705D01*
X0878451Y0036416D01*
X0877983Y0036226D01*
X0877484Y0036146D01*
X0877582Y0036161D02*
X0872645Y0036161D01*
X0872371Y0036199D02*
X0877817Y0036199D01*
X0878010Y0036237D02*
X0872230Y0036237D01*
X0872120Y0036275D02*
X0878104Y0036275D01*
X0878197Y0036313D02*
X0872011Y0036313D01*
X0871902Y0036351D02*
X0878291Y0036351D01*
X0878385Y0036389D02*
X0871835Y0036389D01*
X0871770Y0036427D02*
X0878467Y0036427D01*
X0878521Y0036465D02*
X0871705Y0036465D01*
X0871641Y0036502D02*
X0878576Y0036502D01*
X0878630Y0036540D02*
X0871576Y0036540D01*
X0871511Y0036578D02*
X0878684Y0036578D01*
X0878739Y0036616D02*
X0871469Y0036616D01*
X0871426Y0036654D02*
X0878793Y0036654D01*
X0878847Y0036692D02*
X0871384Y0036692D01*
X0871341Y0036730D02*
X0878888Y0036730D01*
X0878923Y0036768D02*
X0871298Y0036768D01*
X0871256Y0036805D02*
X0878957Y0036805D01*
X0878992Y0036843D02*
X0871213Y0036843D01*
X0871173Y0036881D02*
X0879026Y0036881D01*
X0879060Y0036919D02*
X0871144Y0036919D01*
X0871115Y0036957D02*
X0879095Y0036957D01*
X0879129Y0036995D02*
X0871087Y0036995D01*
X0871058Y0037033D02*
X0879164Y0037033D01*
X0879198Y0037071D02*
X0871029Y0037071D01*
X0871001Y0037109D02*
X0879222Y0037109D01*
X0879244Y0037146D02*
X0870972Y0037146D01*
X0870943Y0037184D02*
X0879265Y0037184D01*
X0879286Y0037222D02*
X0870915Y0037222D01*
X0870894Y0037260D02*
X0879308Y0037260D01*
X0879329Y0037298D02*
X0870876Y0037298D01*
X0870857Y0037336D02*
X0879350Y0037336D01*
X0879372Y0037374D02*
X0870839Y0037374D01*
X0870821Y0037412D02*
X0879393Y0037412D01*
X0879414Y0037449D02*
X0870802Y0037449D01*
X0870784Y0037487D02*
X0879436Y0037487D01*
X0879455Y0037525D02*
X0870765Y0037525D01*
X0870747Y0037563D02*
X0879467Y0037563D01*
X0879478Y0037601D02*
X0870729Y0037601D01*
X0870712Y0037639D02*
X0879489Y0037639D01*
X0879500Y0037677D02*
X0870702Y0037677D01*
X0870692Y0037715D02*
X0879512Y0037715D01*
X0879523Y0037752D02*
X0870682Y0037752D01*
X0870672Y0037790D02*
X0879534Y0037790D01*
X0879545Y0037828D02*
X0870662Y0037828D01*
X0870653Y0037866D02*
X0879557Y0037866D01*
X0879568Y0037904D02*
X0870643Y0037904D01*
X0870633Y0037942D02*
X0879579Y0037942D01*
X0879590Y0037980D02*
X0870623Y0037980D01*
X0870613Y0038018D02*
X0879598Y0038018D01*
X0879601Y0038056D02*
X0870603Y0038056D01*
X0870599Y0038093D02*
X0879603Y0038093D01*
X0879606Y0038131D02*
X0870597Y0038131D01*
X0870595Y0038169D02*
X0879608Y0038169D01*
X0879611Y0038207D02*
X0870593Y0038207D01*
X0870590Y0038245D02*
X0879613Y0038245D01*
X0879615Y0038283D02*
X0870588Y0038283D01*
X0870586Y0038321D02*
X0879618Y0038321D01*
X0879620Y0038359D02*
X0870584Y0038359D01*
X0870581Y0038396D02*
X0879623Y0038396D01*
X0879625Y0038434D02*
X0870579Y0038434D01*
X0870577Y0038472D02*
X0879628Y0038472D01*
X0879630Y0038510D02*
X0870575Y0038510D01*
X0870577Y0038548D02*
X0879627Y0038548D01*
X0879625Y0038586D02*
X0870579Y0038586D01*
X0870582Y0038624D02*
X0879622Y0038624D01*
X0879620Y0038662D02*
X0870584Y0038662D01*
X0870586Y0038700D02*
X0879618Y0038700D01*
X0879615Y0038737D02*
X0870588Y0038737D01*
X0870591Y0038775D02*
X0879613Y0038775D01*
X0879610Y0038813D02*
X0870593Y0038813D01*
X0870595Y0038851D02*
X0879608Y0038851D01*
X0879605Y0038889D02*
X0870597Y0038889D01*
X0870600Y0038927D02*
X0879603Y0038927D01*
X0879601Y0038965D02*
X0870604Y0038965D01*
X0870614Y0039003D02*
X0879598Y0039003D01*
X0879589Y0039040D02*
X0870624Y0039040D01*
X0870634Y0039078D02*
X0879578Y0039078D01*
X0879567Y0039116D02*
X0870644Y0039116D01*
X0870654Y0039154D02*
X0879555Y0039154D01*
X0879544Y0039192D02*
X0870664Y0039192D01*
X0870674Y0039230D02*
X0879533Y0039230D01*
X0879522Y0039268D02*
X0870683Y0039268D01*
X0870693Y0039306D02*
X0879510Y0039306D01*
X0879499Y0039344D02*
X0870703Y0039344D01*
X0870713Y0039381D02*
X0879488Y0039381D01*
X0879477Y0039419D02*
X0870731Y0039419D01*
X0870749Y0039457D02*
X0879465Y0039457D01*
X0879454Y0039495D02*
X0870768Y0039495D01*
X0870786Y0039533D02*
X0879433Y0039533D01*
X0879412Y0039571D02*
X0870804Y0039571D01*
X0870823Y0039609D02*
X0879391Y0039609D01*
X0879369Y0039647D02*
X0870841Y0039647D01*
X0870859Y0039684D02*
X0879348Y0039684D01*
X0879326Y0039722D02*
X0870878Y0039722D01*
X0870896Y0039760D02*
X0879305Y0039760D01*
X0879284Y0039798D02*
X0870918Y0039798D01*
X0870947Y0039836D02*
X0879262Y0039836D01*
X0879241Y0039874D02*
X0870975Y0039874D01*
X0871004Y0039912D02*
X0879220Y0039912D01*
X0879194Y0039950D02*
X0871033Y0039950D01*
X0871061Y0039988D02*
X0879160Y0039988D01*
X0879125Y0040025D02*
X0871090Y0040025D01*
X0871119Y0040063D02*
X0879091Y0040063D01*
X0879056Y0040101D02*
X0871148Y0040101D01*
X0871176Y0040139D02*
X0879022Y0040139D01*
X0878988Y0040177D02*
X0871218Y0040177D01*
X0871261Y0040215D02*
X0878953Y0040215D01*
X0878919Y0040253D02*
X0871303Y0040253D01*
X0871346Y0040291D02*
X0878884Y0040291D01*
X0878841Y0040328D02*
X0871389Y0040328D01*
X0871431Y0040366D02*
X0878786Y0040366D01*
X0878732Y0040404D02*
X0871474Y0040404D01*
X0871519Y0040442D02*
X0878678Y0040442D01*
X0878623Y0040480D02*
X0871584Y0040480D01*
X0871648Y0040518D02*
X0878569Y0040518D01*
X0878515Y0040556D02*
X0871713Y0040556D01*
X0871778Y0040594D02*
X0878460Y0040594D01*
X0878373Y0040631D02*
X0871842Y0040631D01*
X0871915Y0040669D02*
X0878280Y0040669D01*
X0878186Y0040707D02*
X0872024Y0040707D01*
X0872133Y0040745D02*
X0878093Y0040745D01*
X0877999Y0040783D02*
X0872243Y0040783D01*
X0872403Y0040821D02*
X0877789Y0040821D01*
X0877554Y0040859D02*
X0872678Y0040859D01*
X0888063Y0038970D02*
X0888200Y0039415D01*
X0888421Y0039824D01*
X0888717Y0040182D01*
X0889078Y0040476D01*
X0889489Y0040693D01*
X0889935Y0040826D01*
X0890398Y0040870D01*
X0892760Y0040870D01*
X0893219Y0040823D01*
X0893659Y0040687D01*
X0894065Y0040468D01*
X0894420Y0040174D01*
X0894711Y0039816D01*
X0894927Y0039409D01*
X0895059Y0038967D01*
X0895102Y0038508D01*
X0895046Y0037984D01*
X0894874Y0037486D01*
X0894595Y0037039D01*
X0894224Y0036665D01*
X0893780Y0036383D01*
X0893283Y0036207D01*
X0892760Y0036146D01*
X0890398Y0036146D01*
X0889870Y0036203D01*
X0889367Y0036376D01*
X0888917Y0036657D01*
X0888539Y0037031D01*
X0888255Y0037480D01*
X0888077Y0037980D01*
X0888016Y0038508D01*
X0888063Y0038970D01*
X0888063Y0038965D02*
X0895059Y0038965D01*
X0895063Y0038927D02*
X0888059Y0038927D01*
X0888055Y0038889D02*
X0895066Y0038889D01*
X0895070Y0038851D02*
X0888051Y0038851D01*
X0888047Y0038813D02*
X0895074Y0038813D01*
X0895077Y0038775D02*
X0888043Y0038775D01*
X0888039Y0038737D02*
X0895081Y0038737D01*
X0895084Y0038700D02*
X0888035Y0038700D01*
X0888032Y0038662D02*
X0895088Y0038662D01*
X0895091Y0038624D02*
X0888028Y0038624D01*
X0888024Y0038586D02*
X0895095Y0038586D01*
X0895099Y0038548D02*
X0888020Y0038548D01*
X0888016Y0038510D02*
X0895102Y0038510D01*
X0895098Y0038472D02*
X0888020Y0038472D01*
X0888024Y0038434D02*
X0895094Y0038434D01*
X0895090Y0038396D02*
X0888029Y0038396D01*
X0888033Y0038359D02*
X0895086Y0038359D01*
X0895082Y0038321D02*
X0888038Y0038321D01*
X0888042Y0038283D02*
X0895078Y0038283D01*
X0895074Y0038245D02*
X0888046Y0038245D01*
X0888051Y0038207D02*
X0895070Y0038207D01*
X0895066Y0038169D02*
X0888055Y0038169D01*
X0888060Y0038131D02*
X0895062Y0038131D01*
X0895057Y0038093D02*
X0888064Y0038093D01*
X0888069Y0038056D02*
X0895053Y0038056D01*
X0895049Y0038018D02*
X0888073Y0038018D01*
X0888078Y0037980D02*
X0895044Y0037980D01*
X0895031Y0037942D02*
X0888091Y0037942D01*
X0888104Y0037904D02*
X0895018Y0037904D01*
X0895005Y0037866D02*
X0888118Y0037866D01*
X0888131Y0037828D02*
X0894992Y0037828D01*
X0894979Y0037790D02*
X0888145Y0037790D01*
X0888158Y0037752D02*
X0894966Y0037752D01*
X0894953Y0037715D02*
X0888172Y0037715D01*
X0888185Y0037677D02*
X0894939Y0037677D01*
X0894926Y0037639D02*
X0888198Y0037639D01*
X0888212Y0037601D02*
X0894913Y0037601D01*
X0894900Y0037563D02*
X0888225Y0037563D01*
X0888239Y0037525D02*
X0894887Y0037525D01*
X0894874Y0037487D02*
X0888252Y0037487D01*
X0888274Y0037449D02*
X0894851Y0037449D01*
X0894827Y0037412D02*
X0888298Y0037412D01*
X0888322Y0037374D02*
X0894804Y0037374D01*
X0894780Y0037336D02*
X0888346Y0037336D01*
X0888370Y0037298D02*
X0894756Y0037298D01*
X0894733Y0037260D02*
X0888394Y0037260D01*
X0888418Y0037222D02*
X0894709Y0037222D01*
X0894686Y0037184D02*
X0888442Y0037184D01*
X0888466Y0037146D02*
X0894662Y0037146D01*
X0894639Y0037109D02*
X0888490Y0037109D01*
X0888514Y0037071D02*
X0894615Y0037071D01*
X0894589Y0037033D02*
X0888538Y0037033D01*
X0888576Y0036995D02*
X0894551Y0036995D01*
X0894514Y0036957D02*
X0888614Y0036957D01*
X0888652Y0036919D02*
X0894476Y0036919D01*
X0894439Y0036881D02*
X0888691Y0036881D01*
X0888729Y0036843D02*
X0894401Y0036843D01*
X0894364Y0036805D02*
X0888767Y0036805D01*
X0888805Y0036768D02*
X0894326Y0036768D01*
X0894289Y0036730D02*
X0888843Y0036730D01*
X0888881Y0036692D02*
X0894251Y0036692D01*
X0894207Y0036654D02*
X0888922Y0036654D01*
X0888982Y0036616D02*
X0894147Y0036616D01*
X0894087Y0036578D02*
X0889043Y0036578D01*
X0889104Y0036540D02*
X0894028Y0036540D01*
X0893968Y0036502D02*
X0889165Y0036502D01*
X0889226Y0036465D02*
X0893908Y0036465D01*
X0893849Y0036427D02*
X0889287Y0036427D01*
X0889347Y0036389D02*
X0893789Y0036389D01*
X0893689Y0036351D02*
X0889441Y0036351D01*
X0889551Y0036313D02*
X0893582Y0036313D01*
X0893476Y0036275D02*
X0889661Y0036275D01*
X0889770Y0036237D02*
X0893369Y0036237D01*
X0893219Y0036199D02*
X0889903Y0036199D01*
X0890252Y0036161D02*
X0892895Y0036161D01*
X0895048Y0039003D02*
X0888073Y0039003D01*
X0888085Y0039040D02*
X0895037Y0039040D01*
X0895026Y0039078D02*
X0888096Y0039078D01*
X0888108Y0039116D02*
X0895014Y0039116D01*
X0895003Y0039154D02*
X0888120Y0039154D01*
X0888131Y0039192D02*
X0894992Y0039192D01*
X0894981Y0039230D02*
X0888143Y0039230D01*
X0888155Y0039268D02*
X0894969Y0039268D01*
X0894958Y0039306D02*
X0888166Y0039306D01*
X0888178Y0039344D02*
X0894947Y0039344D01*
X0894935Y0039381D02*
X0888190Y0039381D01*
X0888202Y0039419D02*
X0894922Y0039419D01*
X0894901Y0039457D02*
X0888223Y0039457D01*
X0888243Y0039495D02*
X0894881Y0039495D01*
X0894861Y0039533D02*
X0888264Y0039533D01*
X0888284Y0039571D02*
X0894841Y0039571D01*
X0894821Y0039609D02*
X0888305Y0039609D01*
X0888325Y0039647D02*
X0894801Y0039647D01*
X0894781Y0039684D02*
X0888346Y0039684D01*
X0888366Y0039722D02*
X0894761Y0039722D01*
X0894741Y0039760D02*
X0888387Y0039760D01*
X0888407Y0039798D02*
X0894721Y0039798D01*
X0894695Y0039836D02*
X0888431Y0039836D01*
X0888462Y0039874D02*
X0894665Y0039874D01*
X0894634Y0039912D02*
X0888494Y0039912D01*
X0888525Y0039950D02*
X0894603Y0039950D01*
X0894572Y0039988D02*
X0888556Y0039988D01*
X0888588Y0040025D02*
X0894541Y0040025D01*
X0894511Y0040063D02*
X0888619Y0040063D01*
X0888650Y0040101D02*
X0894480Y0040101D01*
X0894449Y0040139D02*
X0888682Y0040139D01*
X0888713Y0040177D02*
X0894417Y0040177D01*
X0894371Y0040215D02*
X0888757Y0040215D01*
X0888804Y0040253D02*
X0894325Y0040253D01*
X0894280Y0040291D02*
X0888851Y0040291D01*
X0888897Y0040328D02*
X0894234Y0040328D01*
X0894188Y0040366D02*
X0888944Y0040366D01*
X0888990Y0040404D02*
X0894142Y0040404D01*
X0894097Y0040442D02*
X0889037Y0040442D01*
X0889086Y0040480D02*
X0894043Y0040480D01*
X0893973Y0040518D02*
X0889158Y0040518D01*
X0889229Y0040556D02*
X0893903Y0040556D01*
X0893833Y0040594D02*
X0889301Y0040594D01*
X0889372Y0040631D02*
X0893763Y0040631D01*
X0893692Y0040669D02*
X0889444Y0040669D01*
X0889536Y0040707D02*
X0893594Y0040707D01*
X0893471Y0040745D02*
X0889663Y0040745D01*
X0889789Y0040783D02*
X0893348Y0040783D01*
X0893225Y0040821D02*
X0889916Y0040821D01*
X0890278Y0040859D02*
X0892870Y0040859D01*
X0892760Y0006854D02*
X0893219Y0006807D01*
X0893659Y0006672D01*
X0894065Y0006452D01*
X0894420Y0006158D01*
X0894711Y0005801D01*
X0894927Y0005393D01*
X0895059Y0004951D01*
X0895102Y0004492D01*
X0895046Y0003968D01*
X0894874Y0003470D01*
X0894595Y0003023D01*
X0894224Y0002649D01*
X0893780Y0002367D01*
X0893283Y0002191D01*
X0892760Y0002130D01*
X0890398Y0002130D01*
X0889870Y0002187D01*
X0889367Y0002361D01*
X0888917Y0002641D01*
X0888539Y0003015D01*
X0888255Y0003464D01*
X0888077Y0003965D01*
X0888016Y0004492D01*
X0888063Y0004955D01*
X0888200Y0005399D01*
X0888421Y0005808D01*
X0888717Y0006167D01*
X0889078Y0006460D01*
X0889489Y0006678D01*
X0889935Y0006811D01*
X0890398Y0006854D01*
X0892760Y0006854D01*
X0892887Y0006841D02*
X0890259Y0006841D01*
X0889910Y0006803D02*
X0893231Y0006803D01*
X0893354Y0006766D02*
X0889784Y0006766D01*
X0889657Y0006728D02*
X0893477Y0006728D01*
X0893600Y0006690D02*
X0889530Y0006690D01*
X0889441Y0006652D02*
X0893696Y0006652D01*
X0893766Y0006614D02*
X0889369Y0006614D01*
X0889297Y0006576D02*
X0893836Y0006576D01*
X0893906Y0006538D02*
X0889226Y0006538D01*
X0889154Y0006500D02*
X0893976Y0006500D01*
X0894046Y0006462D02*
X0889083Y0006462D01*
X0889035Y0006425D02*
X0894099Y0006425D01*
X0894144Y0006387D02*
X0888988Y0006387D01*
X0888941Y0006349D02*
X0894190Y0006349D01*
X0894236Y0006311D02*
X0888895Y0006311D01*
X0888848Y0006273D02*
X0894282Y0006273D01*
X0894328Y0006235D02*
X0888802Y0006235D01*
X0888755Y0006197D02*
X0894373Y0006197D01*
X0894419Y0006159D02*
X0888712Y0006159D01*
X0888680Y0006122D02*
X0894450Y0006122D01*
X0894481Y0006084D02*
X0888649Y0006084D01*
X0888618Y0006046D02*
X0894512Y0006046D01*
X0894543Y0006008D02*
X0888586Y0006008D01*
X0888555Y0005970D02*
X0894574Y0005970D01*
X0894604Y0005932D02*
X0888523Y0005932D01*
X0888492Y0005894D02*
X0894635Y0005894D01*
X0894666Y0005856D02*
X0888461Y0005856D01*
X0888429Y0005818D02*
X0894697Y0005818D01*
X0894722Y0005781D02*
X0888406Y0005781D01*
X0888386Y0005743D02*
X0894742Y0005743D01*
X0894762Y0005705D02*
X0888365Y0005705D01*
X0888345Y0005667D02*
X0894782Y0005667D01*
X0894802Y0005629D02*
X0888324Y0005629D01*
X0888304Y0005591D02*
X0894822Y0005591D01*
X0894842Y0005553D02*
X0888283Y0005553D01*
X0888263Y0005515D02*
X0894862Y0005515D01*
X0894882Y0005478D02*
X0888242Y0005478D01*
X0888222Y0005440D02*
X0894902Y0005440D01*
X0894922Y0005402D02*
X0888202Y0005402D01*
X0888189Y0005364D02*
X0894936Y0005364D01*
X0894947Y0005326D02*
X0888178Y0005326D01*
X0888166Y0005288D02*
X0894958Y0005288D01*
X0894970Y0005250D02*
X0888154Y0005250D01*
X0888143Y0005212D02*
X0894981Y0005212D01*
X0894992Y0005174D02*
X0888131Y0005174D01*
X0888119Y0005137D02*
X0895004Y0005137D01*
X0895015Y0005099D02*
X0888108Y0005099D01*
X0888096Y0005061D02*
X0895026Y0005061D01*
X0895038Y0005023D02*
X0888084Y0005023D01*
X0888073Y0004985D02*
X0895049Y0004985D01*
X0895059Y0004947D02*
X0888062Y0004947D01*
X0888059Y0004909D02*
X0895063Y0004909D01*
X0895067Y0004871D02*
X0888055Y0004871D01*
X0888051Y0004834D02*
X0895070Y0004834D01*
X0895074Y0004796D02*
X0888047Y0004796D01*
X0888043Y0004758D02*
X0895077Y0004758D01*
X0895081Y0004720D02*
X0888039Y0004720D01*
X0888035Y0004682D02*
X0895084Y0004682D01*
X0895088Y0004644D02*
X0888031Y0004644D01*
X0888027Y0004606D02*
X0895092Y0004606D01*
X0895095Y0004568D02*
X0888024Y0004568D01*
X0888020Y0004531D02*
X0895099Y0004531D01*
X0895102Y0004493D02*
X0888016Y0004493D01*
X0888020Y0004455D02*
X0895098Y0004455D01*
X0895094Y0004417D02*
X0888025Y0004417D01*
X0888029Y0004379D02*
X0895090Y0004379D01*
X0895086Y0004341D02*
X0888033Y0004341D01*
X0888038Y0004303D02*
X0895082Y0004303D01*
X0895078Y0004265D02*
X0888042Y0004265D01*
X0888047Y0004227D02*
X0895074Y0004227D01*
X0895070Y0004190D02*
X0888051Y0004190D01*
X0888056Y0004152D02*
X0895065Y0004152D01*
X0895061Y0004114D02*
X0888060Y0004114D01*
X0888064Y0004076D02*
X0895057Y0004076D01*
X0895053Y0004038D02*
X0888069Y0004038D01*
X0888073Y0004000D02*
X0895049Y0004000D01*
X0895043Y0003962D02*
X0888078Y0003962D01*
X0888092Y0003924D02*
X0895030Y0003924D01*
X0895017Y0003887D02*
X0888105Y0003887D01*
X0888119Y0003849D02*
X0895004Y0003849D01*
X0894991Y0003811D02*
X0888132Y0003811D01*
X0888145Y0003773D02*
X0894978Y0003773D01*
X0894965Y0003735D02*
X0888159Y0003735D01*
X0888172Y0003697D02*
X0894952Y0003697D01*
X0894939Y0003659D02*
X0888186Y0003659D01*
X0888199Y0003621D02*
X0894926Y0003621D01*
X0894913Y0003583D02*
X0888213Y0003583D01*
X0888226Y0003546D02*
X0894900Y0003546D01*
X0894887Y0003508D02*
X0888239Y0003508D01*
X0888253Y0003470D02*
X0894873Y0003470D01*
X0894850Y0003432D02*
X0888275Y0003432D01*
X0888299Y0003394D02*
X0894826Y0003394D01*
X0894803Y0003356D02*
X0888323Y0003356D01*
X0888347Y0003318D02*
X0894779Y0003318D01*
X0894755Y0003280D02*
X0888371Y0003280D01*
X0888395Y0003243D02*
X0894732Y0003243D01*
X0894708Y0003205D02*
X0888419Y0003205D01*
X0888443Y0003167D02*
X0894685Y0003167D01*
X0894661Y0003129D02*
X0888467Y0003129D01*
X0888491Y0003091D02*
X0894637Y0003091D01*
X0894614Y0003053D02*
X0888515Y0003053D01*
X0888539Y0003015D02*
X0894587Y0003015D01*
X0894550Y0002977D02*
X0888578Y0002977D01*
X0888616Y0002939D02*
X0894512Y0002939D01*
X0894475Y0002902D02*
X0888654Y0002902D01*
X0888692Y0002864D02*
X0894437Y0002864D01*
X0894399Y0002826D02*
X0888730Y0002826D01*
X0888769Y0002788D02*
X0894362Y0002788D01*
X0894324Y0002750D02*
X0888807Y0002750D01*
X0888845Y0002712D02*
X0894287Y0002712D01*
X0894249Y0002674D02*
X0888883Y0002674D01*
X0888924Y0002636D02*
X0894204Y0002636D01*
X0894144Y0002599D02*
X0888985Y0002599D01*
X0889046Y0002561D02*
X0894085Y0002561D01*
X0894025Y0002523D02*
X0889107Y0002523D01*
X0889168Y0002485D02*
X0893965Y0002485D01*
X0893905Y0002447D02*
X0889229Y0002447D01*
X0889289Y0002409D02*
X0893846Y0002409D01*
X0893786Y0002371D02*
X0889350Y0002371D01*
X0889446Y0002333D02*
X0893684Y0002333D01*
X0893577Y0002296D02*
X0889556Y0002296D01*
X0889666Y0002258D02*
X0893471Y0002258D01*
X0893364Y0002220D02*
X0889775Y0002220D01*
X0889919Y0002182D02*
X0893204Y0002182D01*
X0892880Y0002144D02*
X0890268Y0002144D01*
X0879598Y0003988D02*
X0879454Y0003503D01*
X0879206Y0003063D01*
X0878866Y0002689D01*
X0878451Y0002400D01*
X0877983Y0002211D01*
X0877484Y0002130D01*
X0872760Y0002130D01*
X0872318Y0002191D01*
X0871897Y0002337D01*
X0871512Y0002562D01*
X0871178Y0002858D01*
X0870909Y0003214D01*
X0870714Y0003615D01*
X0870601Y0004047D01*
X0870575Y0004492D01*
X0870601Y0004937D01*
X0870714Y0005369D01*
X0870909Y0005770D01*
X0871178Y0006126D01*
X0871512Y0006422D01*
X0871897Y0006647D01*
X0872318Y0006793D01*
X0872760Y0006854D01*
X0877484Y0006854D01*
X0877983Y0006774D01*
X0878451Y0006584D01*
X0878866Y0006295D01*
X0879206Y0005921D01*
X0879454Y0005481D01*
X0879598Y0004996D01*
X0879630Y0004492D01*
X0879598Y0003988D01*
X0879598Y0004000D02*
X0870613Y0004000D01*
X0870623Y0003962D02*
X0879590Y0003962D01*
X0879579Y0003924D02*
X0870633Y0003924D01*
X0870643Y0003887D02*
X0879567Y0003887D01*
X0879556Y0003849D02*
X0870653Y0003849D01*
X0870663Y0003811D02*
X0879545Y0003811D01*
X0879534Y0003773D02*
X0870673Y0003773D01*
X0870683Y0003735D02*
X0879522Y0003735D01*
X0879511Y0003697D02*
X0870693Y0003697D01*
X0870702Y0003659D02*
X0879500Y0003659D01*
X0879489Y0003621D02*
X0870712Y0003621D01*
X0870729Y0003583D02*
X0879477Y0003583D01*
X0879466Y0003546D02*
X0870748Y0003546D01*
X0870766Y0003508D02*
X0879455Y0003508D01*
X0879435Y0003470D02*
X0870785Y0003470D01*
X0870803Y0003432D02*
X0879413Y0003432D01*
X0879392Y0003394D02*
X0870821Y0003394D01*
X0870840Y0003356D02*
X0879371Y0003356D01*
X0879349Y0003318D02*
X0870858Y0003318D01*
X0870877Y0003280D02*
X0879328Y0003280D01*
X0879307Y0003243D02*
X0870895Y0003243D01*
X0870916Y0003205D02*
X0879285Y0003205D01*
X0879264Y0003167D02*
X0870945Y0003167D01*
X0870973Y0003129D02*
X0879243Y0003129D01*
X0879221Y0003091D02*
X0871002Y0003091D01*
X0871031Y0003053D02*
X0879197Y0003053D01*
X0879162Y0003015D02*
X0871059Y0003015D01*
X0871088Y0002977D02*
X0879128Y0002977D01*
X0879093Y0002939D02*
X0871117Y0002939D01*
X0871145Y0002902D02*
X0879059Y0002902D01*
X0879025Y0002864D02*
X0871174Y0002864D01*
X0871215Y0002826D02*
X0878990Y0002826D01*
X0878956Y0002788D02*
X0871258Y0002788D01*
X0871300Y0002750D02*
X0878921Y0002750D01*
X0878887Y0002712D02*
X0871343Y0002712D01*
X0871385Y0002674D02*
X0878845Y0002674D01*
X0878790Y0002636D02*
X0871428Y0002636D01*
X0871471Y0002599D02*
X0878736Y0002599D01*
X0878682Y0002561D02*
X0871514Y0002561D01*
X0871579Y0002523D02*
X0878627Y0002523D01*
X0878573Y0002485D02*
X0871644Y0002485D01*
X0871708Y0002447D02*
X0878519Y0002447D01*
X0878464Y0002409D02*
X0871773Y0002409D01*
X0871838Y0002371D02*
X0878380Y0002371D01*
X0878287Y0002333D02*
X0871907Y0002333D01*
X0872016Y0002296D02*
X0878193Y0002296D01*
X0878099Y0002258D02*
X0872125Y0002258D01*
X0872235Y0002220D02*
X0878006Y0002220D01*
X0877806Y0002182D02*
X0872383Y0002182D01*
X0872658Y0002144D02*
X0877571Y0002144D01*
X0879601Y0004038D02*
X0870604Y0004038D01*
X0870599Y0004076D02*
X0879603Y0004076D01*
X0879606Y0004114D02*
X0870597Y0004114D01*
X0870595Y0004152D02*
X0879608Y0004152D01*
X0879610Y0004190D02*
X0870593Y0004190D01*
X0870591Y0004227D02*
X0879613Y0004227D01*
X0879615Y0004265D02*
X0870588Y0004265D01*
X0870586Y0004303D02*
X0879618Y0004303D01*
X0879620Y0004341D02*
X0870584Y0004341D01*
X0870582Y0004379D02*
X0879623Y0004379D01*
X0879625Y0004417D02*
X0870579Y0004417D01*
X0870577Y0004455D02*
X0879628Y0004455D01*
X0879630Y0004493D02*
X0870575Y0004493D01*
X0870577Y0004531D02*
X0879627Y0004531D01*
X0879625Y0004568D02*
X0870579Y0004568D01*
X0870582Y0004606D02*
X0879623Y0004606D01*
X0879620Y0004644D02*
X0870584Y0004644D01*
X0870586Y0004682D02*
X0879618Y0004682D01*
X0879615Y0004720D02*
X0870588Y0004720D01*
X0870591Y0004758D02*
X0879613Y0004758D01*
X0879610Y0004796D02*
X0870593Y0004796D01*
X0870595Y0004834D02*
X0879608Y0004834D01*
X0879606Y0004871D02*
X0870597Y0004871D01*
X0870600Y0004909D02*
X0879603Y0004909D01*
X0879601Y0004947D02*
X0870604Y0004947D01*
X0870614Y0004985D02*
X0879598Y0004985D01*
X0879590Y0005023D02*
X0870624Y0005023D01*
X0870633Y0005061D02*
X0879578Y0005061D01*
X0879567Y0005099D02*
X0870643Y0005099D01*
X0870653Y0005137D02*
X0879556Y0005137D01*
X0879545Y0005174D02*
X0870663Y0005174D01*
X0870673Y0005212D02*
X0879533Y0005212D01*
X0879522Y0005250D02*
X0870683Y0005250D01*
X0870693Y0005288D02*
X0879511Y0005288D01*
X0879500Y0005326D02*
X0870703Y0005326D01*
X0870713Y0005364D02*
X0879488Y0005364D01*
X0879477Y0005402D02*
X0870730Y0005402D01*
X0870748Y0005440D02*
X0879466Y0005440D01*
X0879455Y0005478D02*
X0870767Y0005478D01*
X0870785Y0005515D02*
X0879434Y0005515D01*
X0879413Y0005553D02*
X0870803Y0005553D01*
X0870822Y0005591D02*
X0879391Y0005591D01*
X0879370Y0005629D02*
X0870840Y0005629D01*
X0870859Y0005667D02*
X0879349Y0005667D01*
X0879327Y0005705D02*
X0870877Y0005705D01*
X0870895Y0005743D02*
X0879306Y0005743D01*
X0879285Y0005781D02*
X0870917Y0005781D01*
X0870945Y0005818D02*
X0879263Y0005818D01*
X0879242Y0005856D02*
X0870974Y0005856D01*
X0871003Y0005894D02*
X0879221Y0005894D01*
X0879196Y0005932D02*
X0871031Y0005932D01*
X0871060Y0005970D02*
X0879161Y0005970D01*
X0879127Y0006008D02*
X0871089Y0006008D01*
X0871117Y0006046D02*
X0879092Y0006046D01*
X0879058Y0006084D02*
X0871146Y0006084D01*
X0871175Y0006122D02*
X0879024Y0006122D01*
X0878989Y0006159D02*
X0871216Y0006159D01*
X0871259Y0006197D02*
X0878955Y0006197D01*
X0878920Y0006235D02*
X0871301Y0006235D01*
X0871344Y0006273D02*
X0878886Y0006273D01*
X0878843Y0006311D02*
X0871387Y0006311D01*
X0871429Y0006349D02*
X0878789Y0006349D01*
X0878735Y0006387D02*
X0871472Y0006387D01*
X0871516Y0006425D02*
X0878680Y0006425D01*
X0878626Y0006462D02*
X0871581Y0006462D01*
X0871645Y0006500D02*
X0878572Y0006500D01*
X0878517Y0006538D02*
X0871710Y0006538D01*
X0871775Y0006576D02*
X0878463Y0006576D01*
X0878378Y0006614D02*
X0871840Y0006614D01*
X0871909Y0006652D02*
X0878284Y0006652D01*
X0878191Y0006690D02*
X0872019Y0006690D01*
X0872128Y0006728D02*
X0878097Y0006728D01*
X0878003Y0006766D02*
X0872238Y0006766D01*
X0872391Y0006803D02*
X0877799Y0006803D01*
X0877565Y0006841D02*
X0872665Y0006841D01*
D20*
X0719000Y0069000D03*
X0719000Y0199000D03*
X0069000Y0199000D03*
X0069000Y0069000D03*
M02*
