G75*
%MOIN*%
%OFA0B0*%
%FSLAX25Y25*%
%IPPOS*%
%LPD*%
%AMOC8*
5,1,8,0,0,1.08239X$1,22.5*
%
%ADD10C,0.16548*%
%ADD11C,0.07493*%
%ADD12C,0.09658*%
%ADD13R,0.04068X0.03280*%
%ADD14C,0.01803*%
%ADD15R,0.05131X0.04737*%
%ADD16R,0.05131X0.08280*%
%ADD17R,0.04737X0.05131*%
%ADD18C,0.13973*%
%ADD19C,0.06233*%
%ADD20C,0.01981*%
%ADD21R,0.13202X0.13202*%
%ADD22R,0.07887X0.07099*%
%ADD23C,0.03359*%
%ADD24C,0.00600*%
%ADD25C,0.13800*%
D10*
X0036500Y0036500D03*
X0101500Y0036500D03*
X0166500Y0036500D03*
X0231500Y0036500D03*
X0296500Y0036500D03*
X0394000Y0036500D03*
X0524000Y0036500D03*
X0621500Y0036500D03*
X0686500Y0036500D03*
X0751500Y0036500D03*
X0751500Y0101500D03*
X0686500Y0101500D03*
X0621500Y0101500D03*
X0556500Y0101500D03*
X0491500Y0101500D03*
X0426500Y0101500D03*
X0361500Y0101500D03*
X0296500Y0101500D03*
X0231500Y0101500D03*
X0166500Y0101500D03*
X0101500Y0101500D03*
X0036500Y0101500D03*
X0036500Y0166500D03*
X0101500Y0166500D03*
X0166500Y0166500D03*
X0231500Y0166500D03*
X0296500Y0166500D03*
X0361500Y0166500D03*
X0426500Y0166500D03*
X0491500Y0166500D03*
X0556500Y0166500D03*
X0621500Y0166500D03*
X0686500Y0166500D03*
X0751500Y0166500D03*
X0751500Y0231500D03*
X0686500Y0231500D03*
X0621500Y0231500D03*
X0556500Y0231500D03*
X0491500Y0231500D03*
X0426500Y0231500D03*
X0361500Y0231500D03*
X0296500Y0231500D03*
X0231500Y0231500D03*
X0166500Y0231500D03*
X0101500Y0231500D03*
X0036500Y0231500D03*
D11*
X0016500Y0036500D03*
X0056500Y0036500D03*
X0081500Y0036500D03*
X0121500Y0036500D03*
X0146500Y0036500D03*
X0186500Y0036500D03*
X0211500Y0036500D03*
X0251500Y0036500D03*
X0276500Y0036500D03*
X0316500Y0036500D03*
X0374000Y0036500D03*
X0414000Y0036500D03*
X0504000Y0036500D03*
X0544000Y0036500D03*
X0601500Y0036500D03*
X0641500Y0036500D03*
X0666500Y0036500D03*
X0706500Y0036500D03*
X0731500Y0036500D03*
X0771500Y0036500D03*
X0771500Y0101500D03*
X0731500Y0101500D03*
X0706500Y0101500D03*
X0666500Y0101500D03*
X0641500Y0101500D03*
X0601500Y0101500D03*
X0576500Y0101500D03*
X0536500Y0101500D03*
X0511500Y0101500D03*
X0471500Y0101500D03*
X0446500Y0101500D03*
X0406500Y0101500D03*
X0381500Y0101500D03*
X0341500Y0101500D03*
X0316500Y0101500D03*
X0276500Y0101500D03*
X0251500Y0101500D03*
X0211500Y0101500D03*
X0186500Y0101500D03*
X0146500Y0101500D03*
X0121500Y0101500D03*
X0081500Y0101500D03*
X0056500Y0101500D03*
X0016500Y0101500D03*
X0016500Y0166500D03*
X0056500Y0166500D03*
X0081500Y0166500D03*
X0121500Y0166500D03*
X0146500Y0166500D03*
X0186500Y0166500D03*
X0211500Y0166500D03*
X0251500Y0166500D03*
X0276500Y0166500D03*
X0316500Y0166500D03*
X0341500Y0166500D03*
X0381500Y0166500D03*
X0406500Y0166500D03*
X0446500Y0166500D03*
X0471500Y0166500D03*
X0511500Y0166500D03*
X0536500Y0166500D03*
X0576500Y0166500D03*
X0601500Y0166500D03*
X0641500Y0166500D03*
X0666500Y0166500D03*
X0706500Y0166500D03*
X0731500Y0166500D03*
X0771500Y0166500D03*
X0771500Y0231500D03*
X0731500Y0231500D03*
X0706500Y0231500D03*
X0666500Y0231500D03*
X0641500Y0231500D03*
X0601500Y0231500D03*
X0576500Y0231500D03*
X0536500Y0231500D03*
X0511500Y0231500D03*
X0471500Y0231500D03*
X0446500Y0231500D03*
X0406500Y0231500D03*
X0381500Y0231500D03*
X0341500Y0231500D03*
X0316500Y0231500D03*
X0276500Y0231500D03*
X0251500Y0231500D03*
X0211500Y0231500D03*
X0186500Y0231500D03*
X0146500Y0231500D03*
X0121500Y0231500D03*
X0081500Y0231500D03*
X0056500Y0231500D03*
X0016500Y0231500D03*
D12*
X0021500Y0241500D03*
X0046500Y0251500D03*
X0086500Y0241500D03*
X0111500Y0251500D03*
X0151500Y0241500D03*
X0176500Y0251500D03*
X0216500Y0241500D03*
X0241500Y0251500D03*
X0281500Y0241500D03*
X0306500Y0251500D03*
X0346500Y0241500D03*
X0371500Y0251500D03*
X0411500Y0241500D03*
X0436500Y0251500D03*
X0476500Y0241500D03*
X0501500Y0251500D03*
X0541500Y0241500D03*
X0566500Y0251500D03*
X0606500Y0241500D03*
X0631500Y0251500D03*
X0671500Y0241500D03*
X0696500Y0251500D03*
X0736500Y0241500D03*
X0761500Y0251500D03*
X0761500Y0186500D03*
X0736500Y0176500D03*
X0696500Y0186500D03*
X0671500Y0176500D03*
X0631500Y0186500D03*
X0606500Y0176500D03*
X0566500Y0186500D03*
X0541500Y0176500D03*
X0501500Y0186500D03*
X0476500Y0176500D03*
X0436500Y0186500D03*
X0411500Y0176500D03*
X0371500Y0186500D03*
X0346500Y0176500D03*
X0306500Y0186500D03*
X0281500Y0176500D03*
X0241500Y0186500D03*
X0216500Y0176500D03*
X0176500Y0186500D03*
X0151500Y0176500D03*
X0111500Y0186500D03*
X0086500Y0176500D03*
X0046500Y0186500D03*
X0021500Y0176500D03*
X0046500Y0121500D03*
X0021500Y0111500D03*
X0086500Y0111500D03*
X0111500Y0121500D03*
X0151500Y0111500D03*
X0176500Y0121500D03*
X0216500Y0111500D03*
X0241500Y0121500D03*
X0281500Y0111500D03*
X0306500Y0121500D03*
X0346500Y0111500D03*
X0371500Y0121500D03*
X0411500Y0111500D03*
X0436500Y0121500D03*
X0476500Y0111500D03*
X0501500Y0121500D03*
X0541500Y0111500D03*
X0566500Y0121500D03*
X0606500Y0111500D03*
X0631500Y0121500D03*
X0671500Y0111500D03*
X0696500Y0121500D03*
X0736500Y0111500D03*
X0761500Y0121500D03*
X0761500Y0056500D03*
X0736500Y0046500D03*
X0696500Y0056500D03*
X0671500Y0046500D03*
X0631500Y0056500D03*
X0606500Y0046500D03*
X0534000Y0056500D03*
X0509000Y0046500D03*
X0404000Y0056500D03*
X0379000Y0046500D03*
X0306500Y0056500D03*
X0281500Y0046500D03*
X0241500Y0056500D03*
X0216500Y0046500D03*
X0176500Y0056500D03*
X0151500Y0046500D03*
X0111500Y0056500D03*
X0086500Y0046500D03*
X0046500Y0056500D03*
X0021500Y0046500D03*
D13*
X0061500Y0046972D03*
X0061500Y0056028D03*
X0126500Y0056028D03*
X0126500Y0046972D03*
X0191500Y0046972D03*
X0191500Y0056028D03*
X0256500Y0056028D03*
X0256500Y0046972D03*
X0321500Y0046972D03*
X0321500Y0056028D03*
X0404000Y0076972D03*
X0404000Y0086028D03*
X0386500Y0111972D03*
X0386500Y0121028D03*
X0321500Y0121028D03*
X0321500Y0111972D03*
X0256500Y0111972D03*
X0256500Y0121028D03*
X0191500Y0121028D03*
X0191500Y0111972D03*
X0126500Y0111972D03*
X0126500Y0121028D03*
X0061500Y0121028D03*
X0061500Y0111972D03*
X0061500Y0176972D03*
X0061500Y0186028D03*
X0126500Y0186028D03*
X0126500Y0176972D03*
X0191500Y0176972D03*
X0191500Y0186028D03*
X0256500Y0186028D03*
X0256500Y0176972D03*
X0321500Y0176972D03*
X0321500Y0186028D03*
X0386500Y0186028D03*
X0386500Y0176972D03*
X0451500Y0176972D03*
X0451500Y0186028D03*
X0516500Y0186028D03*
X0516500Y0176972D03*
X0581500Y0176972D03*
X0581500Y0186028D03*
X0646500Y0186028D03*
X0646500Y0176972D03*
X0711500Y0176972D03*
X0711500Y0186028D03*
X0776500Y0186028D03*
X0776500Y0176972D03*
X0776500Y0121028D03*
X0776500Y0111972D03*
X0711500Y0111972D03*
X0711500Y0121028D03*
X0646500Y0121028D03*
X0646500Y0111972D03*
X0581500Y0111972D03*
X0581500Y0121028D03*
X0516500Y0121028D03*
X0516500Y0111972D03*
X0451500Y0111972D03*
X0451500Y0121028D03*
X0551500Y0056028D03*
X0551500Y0046972D03*
X0646500Y0046972D03*
X0646500Y0056028D03*
X0711500Y0056028D03*
X0711500Y0046972D03*
X0776500Y0046972D03*
X0776500Y0056028D03*
X0776500Y0241972D03*
X0776500Y0251028D03*
X0711500Y0251028D03*
X0711500Y0241972D03*
X0646500Y0241972D03*
X0646500Y0251028D03*
X0581500Y0251028D03*
X0581500Y0241972D03*
X0516500Y0241972D03*
X0516500Y0251028D03*
X0451500Y0251028D03*
X0451500Y0241972D03*
X0386500Y0241972D03*
X0386500Y0251028D03*
X0321500Y0251028D03*
X0321500Y0241972D03*
X0256500Y0241972D03*
X0256500Y0251028D03*
X0191500Y0251028D03*
X0191500Y0241972D03*
X0126500Y0241972D03*
X0126500Y0251028D03*
X0062500Y0251028D03*
X0062500Y0241972D03*
D14*
X0451913Y0060710D02*
X0451913Y0058562D01*
X0451735Y0058562D01*
X0451735Y0060710D01*
X0451913Y0060710D01*
X0451913Y0060275D02*
X0451735Y0060275D01*
X0453881Y0060710D02*
X0453881Y0058562D01*
X0453703Y0058562D01*
X0453703Y0060710D01*
X0453881Y0060710D01*
X0453881Y0060275D02*
X0453703Y0060275D01*
X0455767Y0060710D02*
X0455767Y0058562D01*
X0455589Y0058562D01*
X0455589Y0060710D01*
X0455767Y0060710D01*
X0455767Y0060275D02*
X0455589Y0060275D01*
X0457735Y0060710D02*
X0457735Y0058562D01*
X0457557Y0058562D01*
X0457557Y0060710D01*
X0457735Y0060710D01*
X0457735Y0060275D02*
X0457557Y0060275D01*
X0459620Y0060710D02*
X0459620Y0058562D01*
X0459442Y0058562D01*
X0459442Y0060710D01*
X0459620Y0060710D01*
X0459620Y0060275D02*
X0459442Y0060275D01*
X0461589Y0060710D02*
X0461589Y0058562D01*
X0461411Y0058562D01*
X0461411Y0060710D01*
X0461589Y0060710D01*
X0461589Y0060275D02*
X0461411Y0060275D01*
X0463380Y0060710D02*
X0463380Y0058562D01*
X0463380Y0060710D02*
X0463558Y0060710D01*
X0463558Y0058562D01*
X0463380Y0058562D01*
X0463380Y0060275D02*
X0463558Y0060275D01*
X0465265Y0060710D02*
X0465265Y0058562D01*
X0465265Y0060710D02*
X0465443Y0060710D01*
X0465443Y0058562D01*
X0465265Y0058562D01*
X0465265Y0060275D02*
X0465443Y0060275D01*
X0467233Y0060710D02*
X0467233Y0058562D01*
X0467233Y0060710D02*
X0467411Y0060710D01*
X0467411Y0058562D01*
X0467233Y0058562D01*
X0467233Y0060275D02*
X0467411Y0060275D01*
X0469119Y0060710D02*
X0469119Y0058562D01*
X0469119Y0060710D02*
X0469297Y0060710D01*
X0469297Y0058562D01*
X0469119Y0058562D01*
X0469119Y0060275D02*
X0469297Y0060275D01*
X0471087Y0060710D02*
X0471087Y0058562D01*
X0471087Y0060710D02*
X0471265Y0060710D01*
X0471265Y0058562D01*
X0471087Y0058562D01*
X0471087Y0060275D02*
X0471265Y0060275D01*
X0473562Y0056087D02*
X0475710Y0056087D01*
X0473562Y0056087D02*
X0473562Y0056265D01*
X0475710Y0056265D01*
X0475710Y0056087D01*
X0475710Y0054119D02*
X0473562Y0054119D01*
X0473562Y0054297D01*
X0475710Y0054297D01*
X0475710Y0054119D01*
X0475710Y0052233D02*
X0473562Y0052233D01*
X0473562Y0052411D01*
X0475710Y0052411D01*
X0475710Y0052233D01*
X0475710Y0050265D02*
X0473562Y0050265D01*
X0473562Y0050443D01*
X0475710Y0050443D01*
X0475710Y0050265D01*
X0475710Y0048380D02*
X0473562Y0048380D01*
X0473562Y0048558D01*
X0475710Y0048558D01*
X0475710Y0048380D01*
X0475710Y0046411D02*
X0473562Y0046411D01*
X0473562Y0046589D01*
X0475710Y0046589D01*
X0475710Y0046411D01*
X0475710Y0044620D02*
X0473562Y0044620D01*
X0475710Y0044620D02*
X0475710Y0044442D01*
X0473562Y0044442D01*
X0473562Y0044620D01*
X0473562Y0042735D02*
X0475710Y0042735D01*
X0475710Y0042557D01*
X0473562Y0042557D01*
X0473562Y0042735D01*
X0473562Y0040767D02*
X0475710Y0040767D01*
X0475710Y0040589D01*
X0473562Y0040589D01*
X0473562Y0040767D01*
X0473562Y0038881D02*
X0475710Y0038881D01*
X0475710Y0038703D01*
X0473562Y0038703D01*
X0473562Y0038881D01*
X0473562Y0036913D02*
X0475710Y0036913D01*
X0475710Y0036735D01*
X0473562Y0036735D01*
X0473562Y0036913D01*
X0471087Y0034438D02*
X0471087Y0032290D01*
X0471087Y0034438D02*
X0471265Y0034438D01*
X0471265Y0032290D01*
X0471087Y0032290D01*
X0471087Y0034003D02*
X0471265Y0034003D01*
X0469119Y0034438D02*
X0469119Y0032290D01*
X0469119Y0034438D02*
X0469297Y0034438D01*
X0469297Y0032290D01*
X0469119Y0032290D01*
X0469119Y0034003D02*
X0469297Y0034003D01*
X0467233Y0034438D02*
X0467233Y0032290D01*
X0467233Y0034438D02*
X0467411Y0034438D01*
X0467411Y0032290D01*
X0467233Y0032290D01*
X0467233Y0034003D02*
X0467411Y0034003D01*
X0465265Y0034438D02*
X0465265Y0032290D01*
X0465265Y0034438D02*
X0465443Y0034438D01*
X0465443Y0032290D01*
X0465265Y0032290D01*
X0465265Y0034003D02*
X0465443Y0034003D01*
X0463380Y0034438D02*
X0463380Y0032290D01*
X0463380Y0034438D02*
X0463558Y0034438D01*
X0463558Y0032290D01*
X0463380Y0032290D01*
X0463380Y0034003D02*
X0463558Y0034003D01*
X0461411Y0034438D02*
X0461411Y0032290D01*
X0461411Y0034438D02*
X0461589Y0034438D01*
X0461589Y0032290D01*
X0461411Y0032290D01*
X0461411Y0034003D02*
X0461589Y0034003D01*
X0459620Y0034438D02*
X0459620Y0032290D01*
X0459442Y0032290D01*
X0459442Y0034438D01*
X0459620Y0034438D01*
X0459620Y0034003D02*
X0459442Y0034003D01*
X0457735Y0034438D02*
X0457735Y0032290D01*
X0457557Y0032290D01*
X0457557Y0034438D01*
X0457735Y0034438D01*
X0457735Y0034003D02*
X0457557Y0034003D01*
X0455767Y0034438D02*
X0455767Y0032290D01*
X0455589Y0032290D01*
X0455589Y0034438D01*
X0455767Y0034438D01*
X0455767Y0034003D02*
X0455589Y0034003D01*
X0453881Y0034438D02*
X0453881Y0032290D01*
X0453703Y0032290D01*
X0453703Y0034438D01*
X0453881Y0034438D01*
X0453881Y0034003D02*
X0453703Y0034003D01*
X0451913Y0034438D02*
X0451913Y0032290D01*
X0451735Y0032290D01*
X0451735Y0034438D01*
X0451913Y0034438D01*
X0451913Y0034003D02*
X0451735Y0034003D01*
X0449438Y0036913D02*
X0447290Y0036913D01*
X0449438Y0036913D02*
X0449438Y0036735D01*
X0447290Y0036735D01*
X0447290Y0036913D01*
X0447290Y0038881D02*
X0449438Y0038881D01*
X0449438Y0038703D01*
X0447290Y0038703D01*
X0447290Y0038881D01*
X0447290Y0040767D02*
X0449438Y0040767D01*
X0449438Y0040589D01*
X0447290Y0040589D01*
X0447290Y0040767D01*
X0447290Y0042735D02*
X0449438Y0042735D01*
X0449438Y0042557D01*
X0447290Y0042557D01*
X0447290Y0042735D01*
X0447290Y0044620D02*
X0449438Y0044620D01*
X0449438Y0044442D01*
X0447290Y0044442D01*
X0447290Y0044620D01*
X0447290Y0046589D02*
X0449438Y0046589D01*
X0449438Y0046411D01*
X0447290Y0046411D01*
X0447290Y0046589D01*
X0447290Y0048380D02*
X0449438Y0048380D01*
X0447290Y0048380D02*
X0447290Y0048558D01*
X0449438Y0048558D01*
X0449438Y0048380D01*
X0449438Y0050265D02*
X0447290Y0050265D01*
X0447290Y0050443D01*
X0449438Y0050443D01*
X0449438Y0050265D01*
X0449438Y0052233D02*
X0447290Y0052233D01*
X0447290Y0052411D01*
X0449438Y0052411D01*
X0449438Y0052233D01*
X0449438Y0054119D02*
X0447290Y0054119D01*
X0447290Y0054297D01*
X0449438Y0054297D01*
X0449438Y0054119D01*
X0449438Y0056087D02*
X0447290Y0056087D01*
X0447290Y0056265D01*
X0449438Y0056265D01*
X0449438Y0056087D01*
D15*
X0431346Y0055000D03*
X0424654Y0055000D03*
X0424654Y0023500D03*
X0431346Y0023500D03*
X0440154Y0023500D03*
X0446846Y0023500D03*
X0798154Y0037500D03*
X0804846Y0037500D03*
X0804846Y0044500D03*
X0798154Y0044500D03*
X0844154Y0032000D03*
X0850846Y0032000D03*
X0850846Y0024500D03*
X0844154Y0024500D03*
X0844154Y0017000D03*
X0850846Y0017000D03*
X0850846Y0009500D03*
X0844154Y0009500D03*
X0804846Y0078500D03*
X0798154Y0078500D03*
X0837654Y0084000D03*
X0844346Y0084000D03*
X0845346Y0104000D03*
X0838654Y0104000D03*
X0837346Y0111500D03*
X0830654Y0111500D03*
D16*
X0806028Y0068783D03*
X0796972Y0068783D03*
X0796972Y0054217D03*
X0806028Y0054217D03*
X0432528Y0046783D03*
X0423472Y0046783D03*
X0423472Y0032217D03*
X0432528Y0032217D03*
D17*
X0456000Y0023346D03*
X0463000Y0023346D03*
X0470000Y0023346D03*
X0477000Y0023346D03*
X0477000Y0016654D03*
X0470000Y0016654D03*
X0463000Y0016654D03*
X0456000Y0016654D03*
X0836500Y0153154D03*
X0845500Y0153154D03*
X0845500Y0159846D03*
X0836500Y0159846D03*
X0836500Y0203154D03*
X0846500Y0203154D03*
X0846500Y0209846D03*
X0836500Y0209846D03*
D18*
X0815516Y0231500D03*
X0867484Y0231500D03*
X0867484Y0181500D03*
X0815516Y0181500D03*
X0815516Y0131500D03*
X0867484Y0131500D03*
D19*
X0855280Y0120476D03*
X0845437Y0120476D03*
X0837563Y0120476D03*
X0827720Y0120476D03*
X0827720Y0170476D03*
X0837563Y0170476D03*
X0845437Y0170476D03*
X0855280Y0170476D03*
X0855280Y0220476D03*
X0845437Y0220476D03*
X0837563Y0220476D03*
X0827720Y0220476D03*
D20*
X0827563Y0073123D02*
X0827563Y0073123D01*
X0827563Y0069775D01*
X0827563Y0069775D01*
X0827563Y0073123D01*
X0827563Y0071657D02*
X0827563Y0071657D01*
X0829531Y0073123D02*
X0829531Y0073123D01*
X0829531Y0069775D01*
X0829531Y0069775D01*
X0829531Y0073123D01*
X0829531Y0071657D02*
X0829531Y0071657D01*
X0831500Y0073123D02*
X0831500Y0073123D01*
X0831500Y0069775D01*
X0831500Y0069775D01*
X0831500Y0073123D01*
X0831500Y0071657D02*
X0831500Y0071657D01*
X0833469Y0073123D02*
X0833469Y0073123D01*
X0833469Y0069775D01*
X0833469Y0069775D01*
X0833469Y0073123D01*
X0833469Y0071657D02*
X0833469Y0071657D01*
X0835437Y0073123D02*
X0835437Y0073123D01*
X0835437Y0069775D01*
X0835437Y0069775D01*
X0835437Y0073123D01*
X0835437Y0071657D02*
X0835437Y0071657D01*
X0837406Y0073123D02*
X0837406Y0073123D01*
X0837406Y0069775D01*
X0837406Y0069775D01*
X0837406Y0073123D01*
X0837406Y0071657D02*
X0837406Y0071657D01*
X0843123Y0067406D02*
X0843123Y0067406D01*
X0839775Y0067406D01*
X0839775Y0067406D01*
X0843123Y0067406D01*
X0843123Y0065437D02*
X0843123Y0065437D01*
X0839775Y0065437D01*
X0839775Y0065437D01*
X0843123Y0065437D01*
X0843123Y0063469D02*
X0843123Y0063469D01*
X0839775Y0063469D01*
X0839775Y0063469D01*
X0843123Y0063469D01*
X0843123Y0061500D02*
X0843123Y0061500D01*
X0839775Y0061500D01*
X0839775Y0061500D01*
X0843123Y0061500D01*
X0843123Y0059531D02*
X0843123Y0059531D01*
X0839775Y0059531D01*
X0839775Y0059531D01*
X0843123Y0059531D01*
X0843123Y0057563D02*
X0843123Y0057563D01*
X0839775Y0057563D01*
X0839775Y0057563D01*
X0843123Y0057563D01*
X0843123Y0055594D02*
X0843123Y0055594D01*
X0839775Y0055594D01*
X0839775Y0055594D01*
X0843123Y0055594D01*
X0837406Y0049877D02*
X0837406Y0049877D01*
X0837406Y0053225D01*
X0837406Y0053225D01*
X0837406Y0049877D01*
X0837406Y0051759D02*
X0837406Y0051759D01*
X0835437Y0049877D02*
X0835437Y0049877D01*
X0835437Y0053225D01*
X0835437Y0053225D01*
X0835437Y0049877D01*
X0835437Y0051759D02*
X0835437Y0051759D01*
X0833469Y0049877D02*
X0833469Y0049877D01*
X0833469Y0053225D01*
X0833469Y0053225D01*
X0833469Y0049877D01*
X0833469Y0051759D02*
X0833469Y0051759D01*
X0831500Y0049877D02*
X0831500Y0049877D01*
X0831500Y0053225D01*
X0831500Y0053225D01*
X0831500Y0049877D01*
X0831500Y0051759D02*
X0831500Y0051759D01*
X0829531Y0049877D02*
X0829531Y0049877D01*
X0829531Y0053225D01*
X0829531Y0053225D01*
X0829531Y0049877D01*
X0829531Y0051759D02*
X0829531Y0051759D01*
X0827563Y0049877D02*
X0827563Y0049877D01*
X0827563Y0053225D01*
X0827563Y0053225D01*
X0827563Y0049877D01*
X0827563Y0051759D02*
X0827563Y0051759D01*
X0825594Y0049877D02*
X0825594Y0049877D01*
X0825594Y0053225D01*
X0825594Y0053225D01*
X0825594Y0049877D01*
X0825594Y0051759D02*
X0825594Y0051759D01*
X0819877Y0055594D02*
X0819877Y0055594D01*
X0823225Y0055594D01*
X0823225Y0055594D01*
X0819877Y0055594D01*
X0819877Y0057563D02*
X0819877Y0057563D01*
X0823225Y0057563D01*
X0823225Y0057563D01*
X0819877Y0057563D01*
X0819877Y0059531D02*
X0819877Y0059531D01*
X0823225Y0059531D01*
X0823225Y0059531D01*
X0819877Y0059531D01*
X0819877Y0061500D02*
X0819877Y0061500D01*
X0823225Y0061500D01*
X0823225Y0061500D01*
X0819877Y0061500D01*
X0819877Y0063469D02*
X0819877Y0063469D01*
X0823225Y0063469D01*
X0823225Y0063469D01*
X0819877Y0063469D01*
X0819877Y0065437D02*
X0819877Y0065437D01*
X0823225Y0065437D01*
X0823225Y0065437D01*
X0819877Y0065437D01*
X0819877Y0067406D02*
X0819877Y0067406D01*
X0823225Y0067406D01*
X0823225Y0067406D01*
X0819877Y0067406D01*
X0825594Y0073123D02*
X0825594Y0073123D01*
X0825594Y0069775D01*
X0825594Y0069775D01*
X0825594Y0073123D01*
X0825594Y0071657D02*
X0825594Y0071657D01*
D21*
X0831500Y0061500D03*
D22*
X0861500Y0057012D03*
X0861500Y0045988D03*
D23*
X0877189Y0032878D03*
X0877189Y0010122D03*
D24*
X0877268Y0005673D02*
X0872937Y0005673D01*
X0872654Y0005639D01*
X0872388Y0005538D01*
X0872154Y0005376D01*
X0871965Y0005163D01*
X0871833Y0004911D01*
X0871765Y0004634D01*
X0871765Y0004350D01*
X0871833Y0004073D01*
X0871965Y0003821D01*
X0872154Y0003608D01*
X0872388Y0003446D01*
X0872654Y0003345D01*
X0872937Y0003311D01*
X0877268Y0003311D01*
X0877550Y0003345D01*
X0877817Y0003446D01*
X0878051Y0003608D01*
X0878240Y0003821D01*
X0878372Y0004073D01*
X0878440Y0004350D01*
X0878440Y0004634D01*
X0878372Y0004911D01*
X0878240Y0005163D01*
X0878051Y0005376D01*
X0877817Y0005538D01*
X0877550Y0005639D01*
X0877268Y0005673D01*
X0878278Y0005091D02*
X0871927Y0005091D01*
X0871765Y0004493D02*
X0878440Y0004493D01*
X0878278Y0003894D02*
X0871927Y0003894D01*
X0889146Y0004350D02*
X0889146Y0004634D01*
X0889215Y0004911D01*
X0889347Y0005163D01*
X0889536Y0005376D01*
X0889770Y0005538D01*
X0890036Y0005639D01*
X0890319Y0005673D01*
X0892760Y0005673D01*
X0893042Y0005639D01*
X0893309Y0005538D01*
X0893543Y0005376D01*
X0893732Y0005163D01*
X0893864Y0004911D01*
X0893932Y0004634D01*
X0893932Y0004350D01*
X0893864Y0004073D01*
X0893732Y0003821D01*
X0893543Y0003608D01*
X0893309Y0003446D01*
X0893042Y0003345D01*
X0892760Y0003311D01*
X0890319Y0003311D01*
X0890036Y0003345D01*
X0889770Y0003446D01*
X0889536Y0003608D01*
X0889347Y0003821D01*
X0889215Y0004073D01*
X0889146Y0004350D01*
X0889146Y0004493D02*
X0893932Y0004493D01*
X0893770Y0005091D02*
X0889309Y0005091D01*
X0889309Y0003894D02*
X0893770Y0003894D01*
X0892760Y0037327D02*
X0893042Y0037361D01*
X0893309Y0037462D01*
X0893543Y0037624D01*
X0893732Y0037837D01*
X0893864Y0038089D01*
X0893932Y0038366D01*
X0893932Y0038650D01*
X0893864Y0038927D01*
X0893732Y0039179D01*
X0893543Y0039392D01*
X0893309Y0039554D01*
X0893042Y0039655D01*
X0892760Y0039689D01*
X0890319Y0039689D01*
X0890036Y0039655D01*
X0889770Y0039554D01*
X0889536Y0039392D01*
X0889347Y0039179D01*
X0889215Y0038927D01*
X0889146Y0038650D01*
X0889146Y0038366D01*
X0889215Y0038089D01*
X0889347Y0037837D01*
X0889536Y0037624D01*
X0889770Y0037462D01*
X0890036Y0037361D01*
X0890319Y0037327D01*
X0892760Y0037327D01*
X0893173Y0037411D02*
X0889905Y0037411D01*
X0889256Y0038009D02*
X0893822Y0038009D01*
X0893932Y0038608D02*
X0889146Y0038608D01*
X0889371Y0039206D02*
X0893708Y0039206D01*
X0878440Y0038650D02*
X0878440Y0038366D01*
X0878372Y0038089D01*
X0878240Y0037837D01*
X0878051Y0037624D01*
X0877817Y0037462D01*
X0877550Y0037361D01*
X0877268Y0037327D01*
X0872937Y0037327D01*
X0872654Y0037361D01*
X0872388Y0037462D01*
X0872154Y0037624D01*
X0871965Y0037837D01*
X0871833Y0038089D01*
X0871765Y0038366D01*
X0871765Y0038650D01*
X0871833Y0038927D01*
X0871965Y0039179D01*
X0872154Y0039392D01*
X0872388Y0039554D01*
X0872654Y0039655D01*
X0872937Y0039689D01*
X0877268Y0039689D01*
X0877550Y0039655D01*
X0877817Y0039554D01*
X0878051Y0039392D01*
X0878240Y0039179D01*
X0878372Y0038927D01*
X0878440Y0038650D01*
X0878440Y0038608D02*
X0871765Y0038608D01*
X0871875Y0038009D02*
X0878330Y0038009D01*
X0877681Y0037411D02*
X0872524Y0037411D01*
X0871989Y0039206D02*
X0878215Y0039206D01*
D25*
X0719000Y0069000D03*
X0719000Y0199000D03*
X0069000Y0199000D03*
X0069000Y0069000D03*
M02*
