%
M48
M72
T01C0.0138
T02C0.0256
T03C0.0362
T04C0.0591
T05C0.0669
T06C0.0917
T07C0.1300
T08C0.1575
%
T01
X8150Y6650
X13650Y7150
X20150Y7650
X26650Y8150
X33150Y8650
X43150Y6650
X43431Y7150
X43650Y7650
X43931Y8150
X44150Y8650
X47150Y8150
X47150Y7650
X48650Y6150
X46950Y5351
X45300Y5050
X45450Y4250
X46350Y3700
X46300Y1000
X47000Y1000
X65650Y8150
X59150Y8650
X80400Y14650
X83000Y15300
X82550Y11150
X83050Y9850
X84900Y8400
X83750Y7700
X82150Y7700
X81600Y6700
X81150Y6700
X81450Y5750
X81100Y5450
X81050Y4750
X81850Y4450
X81850Y4100
X81000Y4150
X82850Y4150
X83800Y4400
X84400Y4850
X84900Y5550
X84900Y6000
X86150Y3650
X86350Y2850
X86350Y2450
X86350Y1850
X86350Y1450
X83800Y1700
X83800Y2450
X83350Y2900
X82800Y2900
X82950Y19650
X82950Y20300
T02
X87719Y3288
X87719Y1012
T03
X85528Y12048
X84544Y12048
X83756Y12048
X82772Y12048
X82772Y17048
X83756Y17048
X84544Y17048
X85528Y17048
X85528Y22048
X84544Y22048
X83756Y22048
X82772Y22048
T04
X73650Y24150
X76150Y25150
X69650Y25150
X67150Y24150
X63150Y25150
X60650Y24150
X56650Y25150
X54150Y24150
X50150Y25150
X47650Y24150
X43650Y25150
X41150Y24150
X37150Y25150
X34650Y24150
X30650Y25150
X28150Y24150
X24150Y25150
X21650Y24150
X17650Y25150
X15150Y24150
X11150Y25150
X8650Y24150
X4650Y25150
X2150Y24150
X4650Y18650
X2150Y17650
X8650Y17650
X11150Y18650
X15150Y17650
X17650Y18650
X21650Y17650
X24150Y18650
X28150Y17650
X30650Y18650
X34650Y17650
X37150Y18650
X41150Y17650
X43650Y18650
X47650Y17650
X50150Y18650
X54150Y17650
X56650Y18650
X60650Y17650
X63150Y18650
X67150Y17650
X69650Y18650
X73650Y17650
X76150Y18650
X76150Y12150
X73650Y11150
X69650Y12150
X67150Y11150
X63150Y12150
X60650Y11150
X56650Y12150
X54150Y11150
X50150Y12150
X47650Y11150
X43650Y12150
X41150Y11150
X37150Y12150
X34650Y11150
X30650Y12150
X28150Y11150
X24150Y12150
X21650Y11150
X17650Y12150
X15150Y11150
X11150Y12150
X8650Y11150
X4650Y12150
X2150Y11150
X4650Y5650
X2150Y4650
X8650Y4650
X11150Y5650
X15150Y4650
X17650Y5650
X21650Y4650
X24150Y5650
X28150Y4650
X30650Y5650
X37900Y4650
X40400Y5650
X50900Y4650
X53400Y5650
X60650Y4650
X63150Y5650
X67150Y4650
X69650Y5650
X73650Y4650
X76150Y5650
T05
X1650Y3650
X5650Y3650
X8150Y3650
X12150Y3650
X14650Y3650
X18650Y3650
X21150Y3650
X25150Y3650
X27650Y3650
X31650Y3650
X37400Y3650
X41400Y3650
X50400Y3650
X54400Y3650
X60150Y3650
X64150Y3650
X66650Y3650
X70650Y3650
X73150Y3650
X77150Y3650
X77150Y10150
X73150Y10150
X70650Y10150
X66650Y10150
X64150Y10150
X60150Y10150
X57650Y10150
X53650Y10150
X51150Y10150
X47150Y10150
X44650Y10150
X40650Y10150
X38150Y10150
X34150Y10150
X31650Y10150
X27650Y10150
X25150Y10150
X21150Y10150
X18650Y10150
X14650Y10150
X12150Y10150
X8150Y10150
X5650Y10150
X1650Y10150
X1650Y16650
X5650Y16650
X8150Y16650
X12150Y16650
X14650Y16650
X18650Y16650
X21150Y16650
X25150Y16650
X27650Y16650
X31650Y16650
X34150Y16650
X38150Y16650
X40650Y16650
X44650Y16650
X47150Y16650
X51150Y16650
X53650Y16650
X57650Y16650
X60150Y16650
X64150Y16650
X66650Y16650
X70650Y16650
X73150Y16650
X77150Y16650
X77150Y23150
X73150Y23150
X70650Y23150
X66650Y23150
X64150Y23150
X60150Y23150
X57650Y23150
X53650Y23150
X51150Y23150
X47150Y23150
X44650Y23150
X40650Y23150
X38150Y23150
X34150Y23150
X31650Y23150
X27650Y23150
X25150Y23150
X21150Y23150
X18650Y23150
X14650Y23150
X12150Y23150
X8150Y23150
X5650Y23150
X1650Y23150
T06
X81552Y23150
X86748Y23150
X86748Y18150
X81552Y18150
X81552Y13150
X86748Y13150
T07
X71900Y6900
X71900Y19900
X6900Y19900
X6900Y6900
T08
X3650Y3650
X10150Y3650
X16650Y3650
X23150Y3650
X29650Y3650
X39400Y3650
X52400Y3650
X62150Y3650
X68650Y3650
X75150Y3650
X75150Y10150
X68650Y10150
X62150Y10150
X55650Y10150
X49150Y10150
X42650Y10150
X36150Y10150
X29650Y10150
X23150Y10150
X16650Y10150
X10150Y10150
X3650Y10150
X3650Y16650
X10150Y16650
X16650Y16650
X23150Y16650
X29650Y16650
X36150Y16650
X42650Y16650
X49150Y16650
X55650Y16650
X62150Y16650
X68650Y16650
X75150Y16650
X75150Y23150
X68650Y23150
X62150Y23150
X55650Y23150
X49150Y23150
X42650Y23150
X36150Y23150
X29650Y23150
X23150Y23150
X16650Y23150
X10150Y23150
X3650Y23150
M30
